<?xml version="1.0" encoding="UTF-8" standalone="no"?>
<!DOCTYPE svg PUBLIC "-//W3C//DTD SVG 1.1//EN" "http://www.w3.org/Graphics/SVG/1.1/DTD/svg11.dtd">
<svg width="100%" height="100%" fill="currentColor" viewBox="0 0 591 591" version="1.1" xmlns="http://www.w3.org/2000/svg" xmlns:xlink="http://www.w3.org/1999/xlink" xml:space="preserve" style="fill-rule:evenodd;clip-rule:evenodd;stroke-linejoin:round;stroke-miterlimit:2;">
    <path d="M295.276,6.419C454.7,6.419 584.132,135.851 584.132,295.276C584.132,454.7 454.7,584.132 295.276,584.132C135.851,584.132 6.419,454.7 6.419,295.276C6.419,135.851 135.851,6.419 295.276,6.419ZM259.843,274.813L205.956,305.908C189.018,315.682 183.202,337.369 192.976,354.308C202.75,371.246 224.437,377.062 241.375,367.288L312.805,326.07C312.98,325.97 313.153,325.869 313.325,325.767C318.753,322.555 323.015,318.111 325.96,312.996C328.918,307.889 330.638,301.976 330.706,295.67C330.709,295.468 330.71,295.268 330.709,295.067L330.709,141.732C330.709,122.176 314.832,106.299 295.276,106.299C275.72,106.299 259.843,122.176 259.843,141.732L259.843,274.813Z"/>
</svg>
