<?xml version="1.0" encoding="UTF-8" standalone="no"?>
<!DOCTYPE svg PUBLIC "-//W3C//DTD SVG 1.1//EN" "http://www.w3.org/Graphics/SVG/1.1/DTD/svg11.dtd">
<svg width="100%" height="100%" fill="currentColor" viewBox="0 0 591 591" version="1.1" xmlns="http://www.w3.org/2000/svg" xmlns:xlink="http://www.w3.org/1999/xlink" xml:space="preserve" style="fill-rule:evenodd;clip-rule:evenodd;stroke-linejoin:round;stroke-miterlimit:2;">
    <path d="M295.276,6.419C454.7,6.419 584.132,135.851 584.132,295.276C584.132,454.7 454.7,584.132 295.276,584.132C135.851,584.132 6.419,454.7 6.419,295.276C6.419,135.851 135.851,6.419 295.276,6.419ZM271.757,309.864L323.498,495.252C327.441,509.38 342.112,517.648 356.239,513.705C370.366,509.762 378.634,495.092 374.692,480.965L320.872,288.132L320.577,287.148L320.316,286.372L320.245,286.175C319.646,284.525 318.88,282.925 317.948,281.402L317.777,281.128C316.827,279.616 315.734,278.219 314.522,276.949L313.798,276.219L313.452,275.889C313.319,275.764 313.184,275.64 313.048,275.518L211.698,184.353C200.793,174.544 183.977,175.434 174.168,186.339C164.359,197.243 165.249,214.06 176.154,223.869L271.757,309.864Z"/>
</svg>
