<?xml version="1.0" encoding="UTF-8" standalone="no"?>
<!DOCTYPE svg PUBLIC "-//W3C//DTD SVG 1.1//EN" "http://www.w3.org/Graphics/SVG/1.1/DTD/svg11.dtd">
<svg width="100%" height="100%" fill="currentColor" viewBox="0 0 591 591" version="1.1" xmlns="http://www.w3.org/2000/svg" xmlns:xlink="http://www.w3.org/1999/xlink" xml:space="preserve" style="fill-rule:evenodd;clip-rule:evenodd;stroke-linejoin:round;stroke-miterlimit:2;">
    <g transform="matrix(1.25477,0,0,1.28013,-41.3819,-190.28)">
        <path d="M472.441,375.929C472.441,383.033 468.281,389.505 461.745,392.573C406.732,418.288 350.248,432.554 295.276,405.81C244.732,381.221 194.214,383.664 143.678,402.886C137.905,405.064 131.409,404.314 126.31,400.882C121.212,397.451 118.165,391.777 118.165,385.715C118.11,339.623 118.11,250.243 118.11,218.361C118.11,211.123 122.426,204.554 129.148,201.561C184.538,177.1 239.891,171.586 295.276,198.53C345.1,222.769 396.165,213.321 446.247,192.186C452.054,189.761 458.714,190.355 463.979,193.766C469.245,197.177 472.412,202.95 472.412,209.136C472.441,255.514 472.441,344.355 472.441,375.929Z"/>
    </g>
    <g transform="matrix(1.173,0,0,1.07437,-24.4396,-38.1501)">
        <path d="M95.248,107.472C95.248,97.157 87.578,88.783 78.13,88.783C68.683,88.783 61.013,97.157 61.013,107.472L61.013,553.272C61.013,563.587 68.683,571.961 78.13,571.961C87.578,571.961 95.248,563.587 95.248,553.272L95.248,107.472Z"/>
    </g>
</svg>
