<?xml version="1.0" encoding="UTF-8" standalone="no"?>
<!DOCTYPE svg PUBLIC "-//W3C//DTD SVG 1.1//EN" "http://www.w3.org/Graphics/SVG/1.1/DTD/svg11.dtd">
<svg width="100%" height="100%" fill="currentColor" viewBox="0 0 591 591" version="1.1" xmlns="http://www.w3.org/2000/svg" xmlns:xlink="http://www.w3.org/1999/xlink" xml:space="preserve" style="fill-rule:evenodd;clip-rule:evenodd;stroke-linejoin:round;stroke-miterlimit:2;">
    <g transform="matrix(1.34314,0,0,1.34314,-101.321,-98.3499)">
        <path d="M276.179,84.005C280.216,77.314 287.461,73.224 295.276,73.224C303.09,73.224 310.335,77.314 314.372,84.005L356.571,153.947C357.793,155.972 359.578,157.597 361.709,158.623C363.84,159.649 366.223,160.032 368.568,159.724L449.562,149.109C457.31,148.094 465.025,151.208 469.897,157.317C474.769,163.427 476.089,171.641 473.374,178.969L445.002,255.57C444.181,257.788 444.024,260.197 444.55,262.502C445.076,264.808 446.263,266.91 447.965,268.552L506.764,325.257C512.388,330.681 514.764,338.654 513.025,346.273C511.286,353.892 505.687,360.045 498.265,362.491L420.686,388.069C418.44,388.81 416.459,390.189 414.984,392.038C413.51,393.887 412.606,396.125 412.384,398.48L404.71,479.805C403.976,487.585 399.224,494.413 392.183,497.804C385.143,501.195 376.841,500.653 370.3,496.376L301.933,451.67C299.954,450.376 297.64,449.686 295.276,449.686C292.911,449.686 290.597,450.376 288.618,451.67L220.251,496.376C213.71,500.653 205.409,501.195 198.368,497.804C191.327,494.413 186.575,487.585 185.841,479.805L178.167,398.48C177.945,396.125 177.041,393.887 175.567,392.038C174.092,390.189 172.111,388.81 169.865,388.069L92.286,362.491C84.865,360.045 79.265,353.892 77.526,346.273C75.787,338.654 78.163,330.681 83.788,325.257L142.586,268.552C144.288,266.91 145.475,264.808 146.001,262.502C146.527,260.197 146.37,257.788 145.549,255.57L117.177,178.969C114.463,171.641 115.782,163.427 120.654,157.317C125.526,151.208 133.241,148.094 140.989,149.109L221.983,159.724C224.328,160.032 226.712,159.649 228.842,158.623C230.973,157.597 232.758,155.972 233.98,153.947L276.179,84.005ZM295.276,202.738C346.348,202.738 387.813,244.203 387.813,295.276C387.813,346.348 346.348,387.813 295.276,387.813C244.203,387.813 202.738,346.348 202.738,295.276C202.738,244.203 244.203,202.738 295.276,202.738ZM295.276,242.529C324.387,242.529 348.022,266.164 348.022,295.276C348.022,324.387 324.387,348.022 295.276,348.022C266.164,348.022 242.529,324.387 242.529,295.276C242.529,266.164 266.164,242.529 295.276,242.529Z"/>
    </g>
</svg>
